<svg xmlns="http://www.w3.org/2000/svg" xmlns:xlink="http://www.w3.org/1999/xlink" viewBox="0 0 1098.38 495.14"><defs><style>.cls-1{fill:#05c4a4;}.cls-2{fill:url(#Gradiente_sem_nome_49);}.cls-3{fill:#fff;}.cls-4{fill:#05c4a4;}</style><linearGradient id="Gradiente_sem_nome_49" x1="3175.58" y1="1520.79" x2="3463.07" y2="1354.81" gradientUnits="userSpaceOnUse"><stop offset="0" stop-color="#04dfc1"/><stop offset="1" stop-color="#044e4a"/></linearGradient></defs><title>binobot</title><g id="Camada_7" data-name="Camada 7"><path class="cls-1" d="M2845.57,1585.24h-63.23a14.81,14.81,0,0,1-14.81-14.81V1291.36a14.81,14.81,0,0,1,14.81-14.81h63.23a14.81,14.81,0,0,1,14.81,14.81v279.07A14.81,14.81,0,0,1,2845.57,1585.24Z" transform="translate(-2499.54 -1272.32)"/><path class="cls-1" d="M3005.43,1447.42v118.94a20.89,20.89,0,0,1-20.9,20.9h-51.65a20.9,20.9,0,0,1-20.91-20.9V1297.45a20.91,20.91,0,0,1,20.91-20.9h32.71a20.89,20.89,0,0,1,18.85,11.88l44,142.47V1297.45a20.9,20.9,0,0,1,20.9-20.9H3101a20.9,20.9,0,0,1,20.9,20.9v271a20.9,20.9,0,0,1-20.9,20.9h-36.91a20.89,20.89,0,0,1-18.9-12Z" transform="translate(-2499.54 -1272.32)"/><path class="cls-1" d="M2651,1589.47h-151.5V1272.32h115.34q40.32,0,59.13,7.28t31.38,28.47q12.57,21.2,12.57,51.54,0,26.19-6.54,40.74T2689.91,1429q17.87,15,26,31t8.1,43q0,39.27-19.95,62.86T2651,1589.47Zm-53.62-253.34h-2.49v61.72h2.49q15.38,0,22-6.86t6.65-22.86q0-17.87-6.34-24.94T2597.42,1336.13Zm-.83,115.34h-1.66v68.17h2.91q16.62,0,23.48-7.27t6.86-25.15q0-20-6.86-27.85T2596.59,1451.47Z" transform="translate(-2499.54 -1272.32)"/><rect class="cls-1" x="67.56" y="160.6" width="61.08" height="112.25"/><rect class="cls-1" x="75.91" y="57.91" width="65.86" height="75.13"/><path class="cls-2" d="M3436.78,1320.1q-45.53-44.36-117.48-44.37t-117.23,44.37q-45.26,44.34-45.29,119.54,0,49.69,21.84,86.39t58.28,55q36.45,18.36,82.15,18.32t82.44-18.32q36.66-18.36,58.74-55t22.05-86.39Q3482.28,1364.45,3436.78,1320.1Z" transform="translate(-2499.54 -1272.32)"/><path class="cls-3" d="M3301.67,1420.71c-1.36.34-2.72.67-4.07,1s-2.74.72-4.09,1.09q-4.08,1.1-8.08,2.26a33.82,33.82,0,0,1,16.19-4.37Z" transform="translate(-2499.54 -1272.32)"/><path class="cls-3" d="M3275.21,1501.1c-.3-2.63-.59-5.21-.87-7.71h.09l.1,1.07v0Z" transform="translate(-2499.54 -1272.32)"/><path class="cls-3" d="M3271.22,1461.73c0-.14,0-.25,0-.32Z" transform="translate(-2499.54 -1272.32)"/><path class="cls-3" d="M3303.46,1420.18Z" transform="translate(-2499.54 -1272.32)"/><path class="cls-3" d="M3271.22,1461.73c0-.14,0-.25,0-.32Z" transform="translate(-2499.54 -1272.32)"/><path class="cls-3" d="M3301.62,1420.71h.05c-1.36.34-2.72.67-4.07,1s-2.74.72-4.09,1.09q-4.08,1.1-8.08,2.26a33.82,33.82,0,0,1,16.19-4.37Z" transform="translate(-2499.54 -1272.32)"/><path class="cls-3" d="M3391.49,1547.61c-.31.08-.62.16-.93.22s-.5.11-.76.15l-.4.06-19.61,2.76-10.93,1.54-1.07.15h-.08l-.6.08h0l-.62.05a16.69,16.69,0,0,1-1.87,0h-.19Z" transform="translate(-2499.54 -1272.32)"/><path class="cls-3" d="M3564.26,1331.33c-26.86-21-58.68-28.93-88-29.73-43.14,0-77.66,11.51-103.21,32.85-15.83,13.23-25.43,29.68-28.28,46.92l-55.46,7.8c-12.45,1.74-21,12.66-19.17,24.4l3.62,22.81h0a29,29,0,0,0-4.06,18.27,10.71,10.71,0,0,1,.9,2.84l.09.6-8.92,1.25a5.7,5.7,0,0,0-5,6.39l3.78,23.93a5.94,5.94,0,0,0,6.8,4.72l7.06-1h.09l.1,1.07v0c.39,2.29.22,2.1.7,6.62,3.23,28.55,8.05,62.52,12.59,65.68l2.52-.33a8.66,8.66,0,0,0-7.63,9.74l1.13,7.34a9.11,9.11,0,0,0,10.34,7.23l5.58-.77.87,5.51c1.33,8.46,9.76,14.34,18.76,13.08h.12c9-1.26,15.2-9.21,13.87-17.67l-.88-5.54,91.07-12.79.87,5.53c1.33,8.47,9.77,14.36,18.74,13.11l.13,0c9-1.27,15.21-9.21,13.88-17.68l-.84-5.53,5.77-.83a8.67,8.67,0,0,0,7.66-9.75l-1.14-7.33a9.07,9.07,0,0,0-10.36-7.23l-.6.08c2.9-3.7-1-29-5.78-53.87.46-.4.93-.79,1.4-1.18a17.87,17.87,0,0,1,10.62-4c31.47.59,61-5.51,88-21.27C3604.39,1431.89,3616.58,1372.31,3564.26,1331.33Zm-240.21,216.49a8.93,8.93,0,0,1-5.8,3.28l-15.44,2.15a8.75,8.75,0,0,1-10-7,8.09,8.09,0,0,1,1.66-6.19,8.59,8.59,0,0,1,5.79-3.25l15.45-2.18a8.78,8.78,0,0,1,10,7A8.06,8.06,0,0,1,3324.05,1547.82Zm7.59-55.42-33.19,4.66c-7.23,1-14-3.74-15.12-10.56l-4.27-27c-1.06-6.8,4-13.23,11.2-14.23l31.83-4.49a29.24,29.24,0,0,1,6.8-1.82l29.49-4c10.5,14.52,25,25,41.72,33.13,3.61,1.75,4.9,3.7,4.8,7.35q-.08,3.33-.08,6.68l-16.83,2.36a28.91,28.91,0,0,1-6.2,1.59l-44.74,6.11A28.22,28.22,0,0,1,3331.64,1492.4Zm3.35,63.19,22.7-3.08-.58.07h0l-.62.05a14.61,14.61,0,0,1-1.87,0h-.23l37.12-5-.93.22c-.25.06-.5.11-.76.15l-.39.07-19.62,2.75-10.93,1.54,54.51-7.4C3394.82,1568.33,3359.77,1573.07,3335,1555.59Zm112.87-25.16a8.93,8.93,0,0,1-5.76,3.28l-15.51,2.16a8.8,8.8,0,0,1-10-7,8.12,8.12,0,0,1,1.63-6.18,8.91,8.91,0,0,1,5.8-3.28l15.47-2.16c4.79-.66,9.31,2.46,10,7A7.8,7.8,0,0,1,3447.86,1530.43Zm110.2-84c-28.16,21.57-61,28.49-96.38,27.25-5-.18-8.65.84-12,3.74l.59,3.07c-.19-1-.4-2-.6-3.06h0c-.43.37-.86.77-1.28,1.2q-11.09,11.28-22.94,21.92c-1.79,1.6-5.55,3.14-7.31,2.4s-3.23-4.24-3.52-6.65c-.54-4.51-.15-9.11-.15-13.68.17-.68.32-1.33.44-2,2.21-11.7-3.17-18.5-15.54-23.82a77.38,77.38,0,0,1-30.18-23.4c-1.12-1.42-2.2-2.86-3.23-4.35q-2.19-3.12-4.12-6.44a62,62,0,0,1-5.48-12.23,57.68,57.68,0,0,1-1.38-30.51c3.43-15.3,13-29.92,28.19-41.48,29.86-22.72,64.68-29.91,102.14-26.87,26.8,2.16,51.38,10.36,72.58,26.57C3597,1368.14,3597.18,1416.51,3558.06,1446.48Z" transform="translate(-2499.54 -1272.32)"/><path class="cls-3" d="M3521.13,1373.41c-11.19.15-20.19,8.93-20,19.51s9.54,19,20.73,18.82,20.2-9,20-19.52S3532.42,1373.26,3521.13,1373.41Zm-.15,28.39c-5.18-.24-9.58-4.6-9.48-9.39.11-5.12,5-9.32,10.55-9.07,5.2.25,9.58,4.59,9.49,9.39C3531.43,1397.85,3526.53,1402.06,3521,1401.8Z" transform="translate(-2499.54 -1272.32)"/><path class="cls-3" d="M3471.08,1373.76c-11.84,0-20.68,8.3-20.59,19.35.07,10.27,8.84,18.48,19.91,18.63s20.41-8.33,20.61-18.82C3491.21,1382.19,3482.45,1373.77,3471.08,1373.76Zm-.81,28c-5.21-.18-9.67-4.45-9.65-9.25,0-5.12,4.85-9.39,10.42-9.21,5.2.19,9.66,4.45,9.65,9.25C3480.67,1397.72,3475.84,1402,3470.27,1401.8Z" transform="translate(-2499.54 -1272.32)"/><path class="cls-3" d="M3419.68,1373.77a21.42,21.42,0,0,0-3.87.36h0c-9.11,1.67-16,9.13-16.18,18.18a18.11,18.11,0,0,0,6,13.59c.33.31.67.6,1,.89h0a20.79,20.79,0,0,0,12.5,4.57,21.77,21.77,0,0,0,6.71-.87,20.61,20.61,0,0,0,7-3.61,18.27,18.27,0,0,0,7.1-14.07C3440.11,1382.34,3431,1373.78,3419.68,1373.77Zm.27,28.4c-5.76.09-10.64-4.57-10.41-10,.22-5.14,5-9.34,10.45-9.24s10.09,4.54,10.08,9.62S3425.39,1402.09,3420,1402.17Z" transform="translate(-2499.54 -1272.32)"/><path class="cls-4" d="M2523,1767.47a20.57,20.57,0,0,1-11-3.07,23.13,23.13,0,0,1-7.93-8.16,21.91,21.91,0,0,1-3-11.22v-5.14a.5.5,0,0,1,.56-.56h12.51c.29,0,.44.19.44.56V1745a8.91,8.91,0,0,0,2.46,6.31,7.94,7.94,0,0,0,11.84-.06,8.94,8.94,0,0,0,2.46-6.25q0-4.14-5.36-7.15l-5.59-3.13q-3.8-2.12-7.15-4a23.48,23.48,0,0,1-9.1-9,25.12,25.12,0,0,1-3-12.23,21.19,21.19,0,0,1,3-11.22,22.47,22.47,0,0,1,8-7.88,21.5,21.5,0,0,1,21.67.06,22.4,22.4,0,0,1,7.93,7.93,21.33,21.33,0,0,1,3,11.11v9.16a.4.4,0,0,1-.45.45h-12.51a.39.39,0,0,1-.44-.45l-.11-9.16a8.61,8.61,0,0,0-2.46-6.37,8,8,0,0,0-5.81-2.45,7.82,7.82,0,0,0-5.92,2.62,8.77,8.77,0,0,0-2.46,6.2,11.13,11.13,0,0,0,1.57,6.14,15,15,0,0,0,5.69,4.69c.38.23,1.1.62,2.18,1.18s2.25,1.19,3.52,1.9,2.4,1.32,3.41,1.84,1.62.86,1.84,1a26.75,26.75,0,0,1,8.82,7.65,18.62,18.62,0,0,1,3.24,11.12,22.38,22.38,0,0,1-3,11.45,22.15,22.15,0,0,1-7.93,8A21.12,21.12,0,0,1,2523,1767.47Z" transform="translate(-2499.54 -1272.32)"/><path class="cls-4" d="M2553.15,1766.35c-.3,0-.45-.18-.45-.56l.11-76.73a.4.4,0,0,1,.45-.45h35.85c.3,0,.45.19.45.56v12.51a.4.4,0,0,1-.45.45h-22.9v17.42h22.9a.4.4,0,0,1,.45.45l.11,12.62a.4.4,0,0,1-.45.45h-23v19.54h23c.3,0,.45.19.45.56v12.73a.4.4,0,0,1-.45.45Z" transform="translate(-2499.54 -1272.32)"/><path class="cls-4" d="M2620.16,1767.47a20.7,20.7,0,0,1-10.95-3.07,22.84,22.84,0,0,1-8-8.21,22.16,22.16,0,0,1-3-11.28l.22-55.85a.4.4,0,0,1,.45-.45h12.51a.4.4,0,0,1,.45.45v55.85a9.12,9.12,0,0,0,2.4,6.42,7.63,7.63,0,0,0,5.86,2.62,7.79,7.79,0,0,0,6-2.62,9.17,9.17,0,0,0,2.4-6.42v-55.85a.39.39,0,0,1,.44-.45h12.51a.4.4,0,0,1,.45.45l.22,55.85a22.61,22.61,0,0,1-10.89,19.54A21,21,0,0,1,2620.16,1767.47Z" transform="translate(-2499.54 -1272.32)"/><path class="cls-4" d="M2668.07,1766.35a.49.49,0,0,1-.55-.56l.22-76.73a.4.4,0,0,1,.45-.45h21.44q10.27,0,16.25,6.26t6,17a28.61,28.61,0,0,1-3.13,13.73,23.14,23.14,0,0,1-8.15,8.94,20.38,20.38,0,0,1-10.95,3.13h-8.49v28.14a.49.49,0,0,1-.56.56Zm13.07-42.22h8.49a7.66,7.66,0,0,0,6.2-3.41,14.11,14.11,0,0,0,2.62-8.87,10.74,10.74,0,0,0-2.34-7.15,8,8,0,0,0-6.48-2.79l-8.49.11Z" transform="translate(-2499.54 -1272.32)"/><path class="cls-4" d="M2709.18,1765.79l13.85-76.73a.52.52,0,0,1,.55-.45h16.2a.53.53,0,0,1,.56.45l13.29,76.73c.07.38-.08.56-.45.56h-12.4c-.29,0-.48-.18-.55-.56l-1.23-8.15h-15.19l-1.23,8.15c-.08.38-.26.56-.56.56h-12.4C2709.32,1766.35,2709.18,1766.17,2709.18,1765.79Zm16.86-20.1h10.72l-4.58-31.39-.67-4.13-.44,4.13Z" transform="translate(-2499.54 -1272.32)"/><path class="cls-4" d="M2761.11,1766.35c-.3,0-.45-.18-.45-.56l.23-76.73a.39.39,0,0,1,.44-.45h22.57a21.72,21.72,0,0,1,11.11,3,22.72,22.72,0,0,1,8.1,7.93,22.68,22.68,0,0,1,1.78,18.66,23,23,0,0,1-2.9,5.58,19.41,19.41,0,0,1-3,3.41,22.78,22.78,0,0,1,6,15.75l.12,22.89a.49.49,0,0,1-.56.56h-12.62q-.45,0-.45-.33V1742.9a9.71,9.71,0,0,0-2.85-7,9.28,9.28,0,0,0-7-3h-7.37l-.11,32.83c0,.38-.15.56-.45.56Zm13.18-46.8h9.61A8.61,8.61,0,0,0,2790,1717a8.56,8.56,0,0,0,.05-12.39,8.52,8.52,0,0,0-6.19-2.57h-9.61Z" transform="translate(-2499.54 -1272.32)"/><path class="cls-4" d="M2834.49,1767.47a20.77,20.77,0,0,1-11.11-3.07,22.57,22.57,0,0,1-7.88-8.21,23,23,0,0,1-2.9-11.51l.11-34.85a22.56,22.56,0,0,1,2.85-11.22,22.15,22.15,0,0,1,7.82-8.15,21.73,21.73,0,0,1,22.17-.06,22.44,22.44,0,0,1,10.72,19.43V1715a.4.4,0,0,1-.45.45h-12.51a.39.39,0,0,1-.44-.45v-5.14a9.23,9.23,0,0,0-2.4-6.36,7.71,7.71,0,0,0-6-2.68,7.3,7.3,0,0,0-6.14,2.73,10,10,0,0,0-2.12,6.31v34.85a9.41,9.41,0,0,0,2.4,6.7,7.69,7.69,0,0,0,5.86,2.57,7.53,7.53,0,0,0,6-2.85,9.67,9.67,0,0,0,2.4-6.42v-5.14a.39.39,0,0,1,.44-.44h12.63a.39.39,0,0,1,.44.44v5.14a22.68,22.68,0,0,1-3,11.51,23.21,23.21,0,0,1-7.87,8.21A20.5,20.5,0,0,1,2834.49,1767.47Z" transform="translate(-2499.54 -1272.32)"/><path class="cls-4" d="M2865,1766.35c-.3,0-.44-.18-.44-.56l.11-76.73c0-.3.14-.45.44-.45H2901c.29,0,.44.19.44.56v12.51a.39.39,0,0,1-.44.45h-22.9v17.42H2901a.39.39,0,0,1,.44.45l.11,12.62a.39.39,0,0,1-.44.45h-23v19.54h23c.29,0,.44.19.44.56v12.73a.39.39,0,0,1-.44.45Z" transform="translate(-2499.54 -1272.32)"/><path class="cls-4" d="M2912,1766.35a.49.49,0,0,1-.55-.56l.11-76.73a.39.39,0,0,1,.44-.45h12.51a.4.4,0,0,1,.45.45l.11,76.73c0,.38-.15.56-.44.56Z" transform="translate(-2499.54 -1272.32)"/><path class="cls-4" d="M2935.35,1766.35c-.3,0-.45-.18-.45-.56l.22-76.73a.4.4,0,0,1,.45-.45h22.56a21.72,21.72,0,0,1,11.11,3,22.72,22.72,0,0,1,8.1,7.93,22.64,22.64,0,0,1,1.79,18.66,23,23,0,0,1-2.91,5.58,19.42,19.42,0,0,1-3,3.41,22.78,22.78,0,0,1,6,15.75l.11,22.89a.49.49,0,0,1-.56.56h-12.62c-.3,0-.44-.11-.44-.33V1742.9a9.71,9.71,0,0,0-2.85-7,9.3,9.3,0,0,0-7-3h-7.37l-.12,32.83c0,.38-.15.56-.44.56Zm13.18-46.8h9.6a8.58,8.58,0,0,0,6.14-2.57,8.57,8.57,0,0,0,.06-12.39,8.55,8.55,0,0,0-6.2-2.57h-9.6Z" transform="translate(-2499.54 -1272.32)"/><path class="cls-4" d="M3008.84,1767.47a20.57,20.57,0,0,1-11-3.07,23.56,23.56,0,0,1-8-8.16,21.57,21.57,0,0,1-3-11.22l.12-35.41a21.55,21.55,0,0,1,3-11.17,22.6,22.6,0,0,1,8-8,20.89,20.89,0,0,1,11-3,20.48,20.48,0,0,1,10.94,3,23,23,0,0,1,7.88,8,21.65,21.65,0,0,1,3,11.17l.11,35.41a21.91,21.91,0,0,1-3,11.22,23.13,23.13,0,0,1-7.93,8.16A20.57,20.57,0,0,1,3008.84,1767.47Zm0-13.52a7.73,7.73,0,0,0,5.86-2.73,8.91,8.91,0,0,0,2.51-6.2l-.11-35.41a8.93,8.93,0,0,0-2.34-6.25,7.7,7.7,0,0,0-5.92-2.57,8,8,0,0,0-5.92,2.51,8.66,8.66,0,0,0-2.46,6.31V1745a8.91,8.91,0,0,0,2.46,6.31A7.82,7.82,0,0,0,3008.84,1754Z" transform="translate(-2499.54 -1272.32)"/><path class="cls-4" d="M3056.3,1766.35a.49.49,0,0,1-.55-.56l.22-76.73a.4.4,0,0,1,.45-.45l20.88-.11a20.88,20.88,0,0,1,11.23,2.91,23,23,0,0,1,8.1,8.09,21.69,21.69,0,0,1,3,11.23v32a22.75,22.75,0,0,1-3.13,11.79,23.41,23.41,0,0,1-20.21,11.67Zm13.07-13.74h6.93a9.39,9.39,0,0,0,7-2.9,9.56,9.56,0,0,0,2.85-6.93v-32.16a8.49,8.49,0,0,0-2.63-6.2,8.08,8.08,0,0,0-6.2-2.51l-7.82.11Z" transform="translate(-2499.54 -1272.32)"/><path class="cls-4" d="M3108.91,1766.35c-.3,0-.45-.18-.45-.56l.11-76.73a.4.4,0,0,1,.45-.45h35.85c.3,0,.45.19.45.56v12.51a.4.4,0,0,1-.45.45H3122v17.42h22.89a.4.4,0,0,1,.45.45l.11,12.62a.39.39,0,0,1-.44.45h-23v19.54h23c.29,0,.44.19.44.56v12.73a.39.39,0,0,1-.44.45Z" transform="translate(-2499.54 -1272.32)"/><path class="cls-4" d="M3184.41,1766.35c-.3,0-.48-.18-.56-.56l-15.41-76.73q-.12-.45.45-.45h12.62a.54.54,0,0,1,.56.45l9.15,51.15,8.94-51.15a.53.53,0,0,1,.56-.45h12.51c.37,0,.52.15.44.45l-15.19,76.73c-.07.38-.26.56-.55.56Z" transform="translate(-2499.54 -1272.32)"/><path class="cls-4" d="M3220.82,1766.35a.49.49,0,0,1-.56-.56l.12-76.73c0-.3.14-.45.44-.45h12.51a.4.4,0,0,1,.45.45l.11,76.73c0,.38-.15.56-.45.56Z" transform="translate(-2499.54 -1272.32)"/><path class="cls-4" d="M3239.92,1765.79l13.85-76.73a.53.53,0,0,1,.56-.45h16.19a.53.53,0,0,1,.56.45l13.29,76.73c.08.38-.07.56-.44.56h-12.4c-.3,0-.49-.18-.56-.56l-1.23-8.15h-15.19l-1.23,8.15c-.07.38-.26.56-.56.56h-12.39C3240.07,1766.35,3239.92,1766.17,3239.92,1765.79Zm16.87-20.1h10.72l-4.58-31.39-.67-4.13-.45,4.13Z" transform="translate(-2499.54 -1272.32)"/><path class="cls-4" d="M3309.5,1767.47a20.49,20.49,0,0,1-10.94-3,22.83,22.83,0,0,1-7.88-8.1,22.1,22.1,0,0,1-3-11.33v-35.41a21.72,21.72,0,0,1,3-11.11,22.72,22.72,0,0,1,7.93-8.1,20.58,20.58,0,0,1,10.89-3,21.27,21.27,0,0,1,11.12,3,21.94,21.94,0,0,1,10.77,19.26v5.14c0,.3-.18.45-.55.45h-12.51a.4.4,0,0,1-.45-.45v-4.25a10.41,10.41,0,0,0-2.4-7,7.58,7.58,0,0,0-6-2.79,7.68,7.68,0,0,0-5.75,2.68,8.86,8.86,0,0,0-2.51,6.25V1745a9,9,0,0,0,2.45,6.31,7.71,7.71,0,0,0,5.81,2.62,7.83,7.83,0,0,0,6-2.57,9,9,0,0,0,2.4-6.36v-5.48h-7.82a.49.49,0,0,1-.56-.55v-12.51a.5.5,0,0,1,.56-.56H3331c.29,0,.44.19.44.56V1745a22,22,0,0,1-3,11.33,22.72,22.72,0,0,1-7.87,8.1A20.73,20.73,0,0,1,3309.5,1767.47Z" transform="translate(-2499.54 -1272.32)"/><path class="cls-4" d="M3339.77,1766.35c-.3,0-.45-.18-.45-.56l.11-76.73a.4.4,0,0,1,.45-.45h35.85c.3,0,.45.19.45.56v12.51a.4.4,0,0,1-.45.45h-22.89v17.42h22.89a.4.4,0,0,1,.45.45l.11,12.62a.39.39,0,0,1-.44.45h-23v19.54h23c.29,0,.44.19.44.56v12.73a.39.39,0,0,1-.44.45Z" transform="translate(-2499.54 -1272.32)"/><path class="cls-4" d="M3387.24,1766.35q-.9,0-.9-.78l-.11-76.06a.8.8,0,0,1,.9-.9h10l18.87,44-.55-43.11c0-.6.33-.9,1-.9h11.06c.45,0,.67.3.67.9l.11,76.17c0,.45-.19.67-.56.67H3418l-19.32-41.1.78,40.21c0,.59-.33.89-1,.89Z" transform="translate(-2499.54 -1272.32)"/><path class="cls-4" d="M3457,1767.47a20.57,20.57,0,0,1-11-3.07,23.13,23.13,0,0,1-7.93-8.16,21.91,21.91,0,0,1-3-11.22v-5.14a.5.5,0,0,1,.56-.56h12.51c.3,0,.45.19.45.56V1745a9,9,0,0,0,2.45,6.31A7.83,7.83,0,0,0,3457,1754a7.72,7.72,0,0,0,5.92-2.68,8.94,8.94,0,0,0,2.46-6.25q0-4.14-5.36-7.15l-5.59-3.13q-3.79-2.12-7.14-4a23.5,23.5,0,0,1-9.11-9,25.12,25.12,0,0,1-3-12.23,21.19,21.19,0,0,1,3-11.22,22.42,22.42,0,0,1,8-7.88,21.48,21.48,0,0,1,21.66.06,22.32,22.32,0,0,1,7.93,7.93,21.23,21.23,0,0,1,3,11.11v9.16a.39.39,0,0,1-.44.45h-12.51a.4.4,0,0,1-.45-.45l-.11-9.16a8.61,8.61,0,0,0-2.46-6.37,8,8,0,0,0-5.81-2.45,7.83,7.83,0,0,0-5.92,2.62,8.81,8.81,0,0,0-2.45,6.2,11.22,11.22,0,0,0,1.56,6.14,14.93,14.93,0,0,0,5.7,4.69c.37.23,1.09.62,2.17,1.18s2.26,1.19,3.52,1.9,2.4,1.32,3.41,1.84,1.62.86,1.84,1a26.79,26.79,0,0,1,8.83,7.65,18.69,18.69,0,0,1,3.24,11.12,22.23,22.23,0,0,1-10.9,19.49A21.12,21.12,0,0,1,3457,1767.47Z" transform="translate(-2499.54 -1272.32)"/></g></svg>